<svg width="28" height="28" viewBox="0 0 16 16" fill="none" xmlns="http://www.w3.org/2000/svg">
<g clip-path="url(#clip0)">
<path d="M2.13283 4.5729L7.75783 7.59465C7.94683 7.6959 8.19133 7.7439 8.43733 7.7439C8.68333 7.7439 8.92783 7.6959 9.11683 7.59465L14.7418 4.5729C15.1086 4.37565 15.4551 3.6084 14.7823 3.6084H2.09308C1.42033 3.6084 1.76683 4.37565 2.13283 4.5729ZM14.9121 6.22515L9.11683 9.2454C8.86183 9.3789 8.68333 9.39465 8.43733 9.39465C8.19133 9.39465 8.01283 9.3789 7.75783 9.2454C7.50283 9.1119 2.40808 6.44115 1.99183 6.2244C1.69933 6.0714 1.70233 6.25065 1.70233 6.38865V11.8584C1.70233 12.1734 2.12683 12.6084 2.45233 12.6084H14.4523C14.7778 12.6084 15.2023 12.1734 15.2023 11.8584V6.3894C15.2023 6.2514 15.2053 6.07215 14.9121 6.22515Z" fill="#4F4F4F"/>
</g>
<defs>
<clipPath id="clip0">
<rect width="15" height="15" fill="white" transform="translate(0.952332 0.608398)"/>
</clipPath>
</defs>
</svg>
