<svg width="28" height="28" viewBox="0 0 16 16" fill="none" xmlns="http://www.w3.org/2000/svg">
<path d="M12.9711 10.1459L11.3836 9.96466C11.1969 9.94273 11.0077 9.9634 10.8302 10.0251C10.6526 10.0868 10.4914 10.1879 10.3586 10.3209L9.20858 11.4709C7.43432 10.5685 5.99219 9.12641 5.08983 7.35216L6.24608 6.1959C6.51483 5.92716 6.64608 5.55216 6.60233 5.17091L6.42108 3.59591C6.38564 3.29102 6.23932 3.0098 6.00997 2.80581C5.78063 2.60182 5.48427 2.48929 5.17733 2.48966H4.09608C3.38983 2.48966 2.80233 3.07716 2.84608 3.78341C3.17733 9.12091 7.44608 13.3834 12.7773 13.7147C13.4836 13.7584 14.0711 13.1709 14.0711 12.4647V11.3834C14.0773 10.7522 13.6023 10.2209 12.9711 10.1459Z" fill="#4F4F4F"/>
</svg>
