<svg width="28" height="28" viewBox="0 0 16 16" fill="none" xmlns="http://www.w3.org/2000/svg">
<g clip-path="url(#clip0)">
<path d="M5.30325 3.61407C5.74575 3.61407 6.14418 3.65251 6.507 3.73126C6.87075 3.8072 7.17825 3.93657 7.43887 4.11189C7.69668 4.28814 7.89543 4.52251 8.04262 4.81501C8.18325 5.1047 8.25356 5.46845 8.25356 5.89876C8.25356 6.3647 8.14856 6.75095 7.93668 7.0622C7.72293 7.37251 7.41262 7.6247 6.99637 7.82439C7.5645 7.98845 7.98356 8.27532 8.26481 8.68314C8.54606 9.09376 8.68106 9.58595 8.68106 10.1653C8.68106 10.6341 8.59012 11.0353 8.412 11.3756C8.23814 11.7077 7.98822 11.9939 7.68262 12.2109C7.37793 12.4275 7.02637 12.5859 6.63356 12.6881C6.23973 12.7917 5.8342 12.844 5.427 12.8438H0.953247V3.61501H5.30418L5.30325 3.61407ZM5.03887 7.34064C5.39887 7.34064 5.69793 7.25532 5.93231 7.08282C6.16668 6.91314 6.27825 6.63189 6.27825 6.2447C6.27825 6.03095 6.23981 5.85189 6.16387 5.71407C6.09039 5.58038 5.98222 5.46897 5.85075 5.39157C5.71317 5.30942 5.561 5.25467 5.40262 5.23032C5.23072 5.19842 5.05621 5.18273 4.88137 5.18345H2.98293V7.3397H5.03981L5.03887 7.34064ZM5.15043 11.2697C5.35012 11.2697 5.54043 11.2519 5.71856 11.2106C5.88881 11.1768 6.05087 11.1103 6.19575 11.0147C6.33075 10.9238 6.44512 10.8038 6.52668 10.6453C6.60918 10.4897 6.64668 10.2909 6.64668 10.0481C6.64668 9.57376 6.51168 9.23345 6.24543 9.02814C5.97918 8.82564 5.62481 8.72626 5.18512 8.72626H2.982V11.2659H5.15043V11.2697Z" fill="#4F4F4F"/>
<path d="M11.5751 11.2378C11.8507 11.5069 12.2464 11.6419 12.762 11.6419C13.1314 11.6419 13.4539 11.5481 13.7201 11.3606C13.9864 11.1731 14.1476 10.9744 14.2095 10.7691H15.8267C15.5661 11.5744 15.1732 12.1462 14.6342 12.4922C14.1036 12.8381 13.4539 13.0134 12.7001 13.0134C12.2138 13.02 11.7306 12.9344 11.2761 12.7612C10.8689 12.6027 10.5011 12.3577 10.1979 12.0431C9.8993 11.721 9.66819 11.3423 9.51824 10.9294C9.35478 10.4726 9.27352 9.99045 9.27824 9.50531C9.27824 9.00469 9.36074 8.53875 9.52386 8.1075C9.69074 7.67344 9.91949 7.30219 10.2242 6.98812C10.5289 6.67406 10.8861 6.42562 11.3079 6.24375C11.749 6.05728 12.2241 5.96438 12.7029 5.97094C13.2682 5.97094 13.7632 6.07969 14.1879 6.30187C14.6098 6.52125 14.9586 6.8175 15.2314 7.18687C15.5042 7.55625 15.6973 7.98094 15.8173 8.45531C15.9373 8.92969 15.9786 9.42469 15.9457 9.94406H11.1204C11.1204 10.4681 11.2967 10.9697 11.5742 11.2359L11.5751 11.2378ZM13.6817 7.72781C13.4651 7.48781 13.0929 7.35562 12.6448 7.35562C12.3514 7.35562 12.1086 7.40531 11.9154 7.50469C11.7365 7.5947 11.5779 7.72041 11.4495 7.87406C11.3362 8.01279 11.2526 8.17329 11.2039 8.34562C11.157 8.50687 11.1279 8.65594 11.1186 8.78531H14.1073C14.0632 8.31656 13.902 7.97062 13.6826 7.72781H13.6817Z" fill="#4F4F4F"/>
<path d="M10.7436 4.3584H14.4851V5.26965H10.7436V4.3584Z" fill="#4F4F4F"/>
</g>
<defs>
<clipPath id="clip0">
<rect width="15" height="15" fill="white" transform="translate(0.952332 0.608398)"/>
</clipPath>
</defs>
</svg>
