<svg width="30" height="24" viewBox="0 0 21 16" fill="none" xmlns="http://www.w3.org/2000/svg">
<path d="M4.99803 6.07132C4.77569 6.07132 4.56233 6.10539 4.34996 6.13645C4.41875 5.90398 4.48954 5.66751 4.6032 5.45509C4.71687 5.14647 4.89434 4.87893 5.07081 4.6094C5.21837 4.31781 5.4786 4.12042 5.67003 3.87092C5.87043 3.62843 6.14362 3.46711 6.35998 3.26571C6.57234 3.05529 6.85051 2.95008 7.07186 2.80178C7.30317 2.66851 7.50457 2.52122 7.71993 2.45108L8.25733 2.22863L8.72992 2.03124L8.24636 0.0893555L7.65113 0.233644C7.4607 0.28174 7.22839 0.337852 6.96418 0.404986C6.69398 0.455086 6.40584 0.592361 6.08479 0.717612C5.76774 0.859896 5.40083 0.956089 5.05984 1.18455C4.71687 1.40298 4.32104 1.58535 3.97208 1.87793C3.63409 2.17954 3.2263 2.44106 2.9252 2.82483C2.59618 3.18354 2.27115 3.5603 2.0189 3.98915C1.72677 4.39797 1.52836 4.84687 1.31898 5.29076C1.12954 5.73464 0.976997 6.18855 0.852368 6.62944C0.616071 7.5132 0.510386 8.35288 0.469508 9.07132C0.435609 9.79076 0.455549 10.389 0.497425 10.8218C0.51238 11.0262 0.540297 11.2246 0.560238 11.3619L0.585163 11.5302L0.611086 11.5242C0.788419 12.3567 1.19665 13.1217 1.78855 13.7308C2.38044 14.3399 3.13182 14.7681 3.95577 14.9659C4.77972 15.1638 5.64256 15.1231 6.44448 14.8487C7.2464 14.5743 7.95463 14.0773 8.48725 13.4153C9.01987 12.7533 9.35511 11.9532 9.45418 11.1077C9.55326 10.2622 9.41212 9.40574 9.04711 8.63747C8.68209 7.8692 8.10811 7.22048 7.39156 6.76636C6.675 6.31223 5.84516 6.07126 4.99803 6.07132ZM15.9654 6.07132C15.743 6.07132 15.5297 6.10539 15.3173 6.13645C15.3861 5.90398 15.4569 5.66751 15.5706 5.45509C15.6842 5.14647 15.8617 4.87893 16.0382 4.6094C16.1857 4.31781 16.446 4.12042 16.6374 3.87092C16.8378 3.62843 17.111 3.46711 17.3273 3.26571C17.5397 3.05529 17.8179 2.95008 18.0392 2.80178C18.2705 2.66851 18.4719 2.52122 18.6873 2.45108L19.2247 2.22863L19.6973 2.03124L19.2137 0.0893555L18.6185 0.233644C18.4281 0.28174 18.1957 0.337852 17.9315 0.404986C17.6613 0.455086 17.3732 0.592361 17.0521 0.717612C16.7361 0.860898 16.3682 0.956089 16.0272 1.18555C15.6842 1.40398 15.2884 1.58635 14.9394 1.87893C14.6014 2.18054 14.1937 2.44206 13.8926 2.82483C13.5635 3.18354 13.2385 3.5603 12.9863 3.98915C12.6941 4.39797 12.4957 4.84687 12.2863 5.29076C12.0969 5.73464 11.9444 6.18855 11.8197 6.62944C11.5834 7.5132 11.4777 8.35288 11.4369 9.07132C11.403 9.79076 11.4229 10.389 11.4648 10.8218C11.4797 11.0262 11.5077 11.2246 11.5276 11.3619L11.5525 11.5302L11.5784 11.5242C11.7558 12.3567 12.164 13.1217 12.7559 13.7308C13.3478 14.3399 14.0992 14.7681 14.9231 14.9659C15.7471 15.1638 16.6099 15.1231 17.4118 14.8487C18.2138 14.5743 18.922 14.0773 19.4546 13.4153C19.9872 12.7533 20.3225 11.9532 20.4215 11.1077C20.5206 10.2622 20.3795 9.40574 20.0145 8.63747C19.6494 7.8692 19.0755 7.22048 18.3589 6.76636C17.6424 6.31223 16.8125 6.07126 15.9654 6.07132Z" fill="#F7C43F"/>
</svg>
