<svg width="30" height="24" viewBox="0 0 21 16" fill="none" xmlns="http://www.w3.org/2000/svg">
<path d="M15.9066 9.78134C16.129 9.78134 16.3423 9.74727 16.5547 9.71621C16.4859 9.94868 16.4151 10.1851 16.3015 10.3976C16.1878 10.7062 16.0103 10.9737 15.8339 11.2433C15.6863 11.5348 15.4261 11.7322 15.2346 11.9817C15.0342 12.2242 14.761 12.3856 14.5447 12.587C14.3323 12.7974 14.0541 12.9026 13.8328 13.0509C13.6015 13.1841 13.4001 13.3314 13.1847 13.4016L12.6473 13.624L12.1747 13.8214L12.6583 15.7633L13.2535 15.619C13.444 15.5709 13.6763 15.5148 13.9405 15.4477C14.2107 15.3976 14.4988 15.2603 14.8199 15.135C15.1369 14.9928 15.5038 14.8966 15.8448 14.6681C16.1878 14.4497 16.5836 14.2673 16.9326 13.9747C17.2706 13.6731 17.6784 13.4116 17.9795 13.0278C18.3085 12.6691 18.6335 12.2924 18.8858 11.8635C19.1779 11.4547 19.3763 11.0058 19.5857 10.5619C19.7751 10.118 19.9277 9.66411 20.0523 9.22323C20.2886 8.33946 20.3943 7.49978 20.4352 6.78134C20.4691 6.0619 20.4491 5.46371 20.4072 5.03084C20.3923 4.82643 20.3644 4.62804 20.3444 4.49076L20.3195 4.32243L20.2936 4.32844C20.1162 3.49594 19.708 2.73091 19.1161 2.12184C18.5242 1.51278 17.7728 1.08456 16.9489 0.886729C16.1249 0.6889 15.2621 0.729543 14.4602 1.00395C13.6583 1.27837 12.95 1.77534 12.4174 2.43737C11.8848 3.09941 11.5496 3.89946 11.4505 4.74497C11.3514 5.59049 11.4925 6.44692 11.8576 7.21519C12.2226 7.98346 12.7966 8.63218 13.5131 9.0863C14.2297 9.54043 15.0595 9.7814 15.9066 9.78134ZM4.93928 9.78134C5.16162 9.78134 5.37498 9.74727 5.58735 9.71621C5.51855 9.94868 5.44777 10.1851 5.3341 10.3976C5.22044 10.7062 5.04297 10.9737 4.8665 11.2433C4.71894 11.5348 4.45871 11.7322 4.26728 11.9817C4.06688 12.2242 3.79369 12.3856 3.57733 12.587C3.36497 12.7974 3.08679 12.9026 2.86545 13.0509C2.63414 13.1841 2.43274 13.3314 2.21738 13.4016L1.67998 13.624L1.20739 13.8214L1.69095 15.7633L2.28618 15.619C2.47661 15.5709 2.70892 15.5148 2.97313 15.4477C3.24333 15.3976 3.53147 15.2603 3.85251 15.135C4.16857 14.9918 4.53648 14.8966 4.87746 14.6671C5.22044 14.4487 5.61626 14.2663 5.96522 13.9737C6.30322 13.6721 6.71101 13.4106 7.01211 13.0278C7.34113 12.6691 7.66616 12.2924 7.91841 11.8635C8.21054 11.4547 8.40895 11.0058 8.61833 10.5619C8.80776 10.118 8.96031 9.66411 9.08494 9.22323C9.32124 8.33946 9.42692 7.49978 9.4678 6.78134C9.5017 6.0619 9.48176 5.46371 9.43988 5.03084C9.42493 4.82643 9.39701 4.62804 9.37707 4.49076L9.35214 4.32243L9.32622 4.32844C9.14889 3.49594 8.74066 2.73091 8.14876 2.12184C7.55686 1.51278 6.80548 1.08456 5.98154 0.886729C5.15759 0.6889 4.29475 0.729543 3.49283 1.00395C2.69091 1.27837 1.98268 1.77534 1.45006 2.43737C0.91744 3.09941 0.582201 3.89946 0.483126 4.74497C0.384048 5.59049 0.525183 6.44692 0.890198 7.21519C1.25521 7.98346 1.8292 8.63218 2.54575 9.0863C3.2623 9.54043 4.09215 9.7814 4.93928 9.78134Z" fill="#F7C43F"/>
</svg>
